<svg width="22" height="22" viewBox="0 0 22 22" fill="none" xmlns="http://www.w3.org/2000/svg">
<g clip-path="url(#clip0_2_36)">
<path d="M7.08555 1.05702C6.75469 0.257805 5.88242 -0.167586 5.04883 0.0601485L1.26758 1.0914C0.519922 1.29765 0 1.97655 0 2.74999C0 13.3805 8.61953 22 19.25 22C20.0234 22 20.7023 21.4801 20.9086 20.7324L21.9398 16.9512C22.1676 16.1176 21.7422 15.2453 20.943 14.9144L16.818 13.1957C16.1176 12.9035 15.3055 13.1055 14.8285 13.6941L13.0926 15.8125C10.0676 14.3816 7.61836 11.9324 6.1875 8.90741L8.30586 7.17577C8.89453 6.69452 9.09648 5.88671 8.8043 5.18632L7.08555 1.06132V1.05702Z" fill="#363D4B"/>
</g>
<defs>
<clipPath id="clip0_2_36">
<rect width="22" height="22" fill="white"/>
</clipPath>
</defs>
</svg>
