<svg width="22" height="22" viewBox="0 0 22 22" fill="none" xmlns="http://www.w3.org/2000/svg">
<path d="M2.0625 2.75C0.923828 2.75 0 3.67383 0 4.8125C0 5.46133 0.305078 6.07148 0.825 6.4625L10.175 13.475C10.6648 13.8402 11.3352 13.8402 11.825 13.475L21.175 6.4625C21.6949 6.07148 22 5.46133 22 4.8125C22 3.67383 21.0762 2.75 19.9375 2.75H2.0625ZM0 7.5625V16.5C0 18.0168 1.2332 19.25 2.75 19.25H19.25C20.7668 19.25 22 18.0168 22 16.5V7.5625L12.65 14.575C11.6703 15.3098 10.3297 15.3098 9.35 14.575L0 7.5625Z" fill="#363D4B"/>
</svg>
